<svg class="icon icon-article" viewBox="0 0 1024 1024" version="1.1" xmlns="http://www.w3.org/2000/svg">
  <path d="M240.51564747 647.74217627h196.07203239c16.59071043 0 30.16492806-13.57421762 30.16492805-30.16492806V165.10332731c0-33.18142087-30.16492806-60.32985613-60.32985612-60.32985611H245.04038668C225.43318342 104.7734712 210.35071939 119.85593522 210.35071939 139.46313845V617.57724821c0 16.59071043 13.57421762 30.16492806 30.16492808 30.16492806z m663.62841731-452.47392089v482.63884894c0 33.18142087-27.14843525 60.32985613-60.32985612 60.32985613H180.18579134c-33.18142087 0-60.32985613-27.14843525-60.32985612-60.32985613V195.26825538c-49.77213131 0-90.49478418 40.72265287-90.49478417 90.49478417v452.4739209c0 49.77213131 40.72265287 90.49478418 90.49478417 90.49478417h286.56681657c16.59071043 0 30.16492806 13.57421762 30.16492807 30.16492807s13.57421762 30.16492806 30.16492805 30.16492806h90.49478418c16.59071043 0 30.16492806-13.57421762 30.16492805-30.16492806s13.57421762-30.16492806 30.16492807-30.16492807h286.56681657c49.77213131 0 90.49478418-40.72265287 90.49478417-90.49478417V285.76303955c0-49.77213131-40.72265287-90.49478418-90.49478417-90.49478417zM587.41232014 647.74217627h191.54729318c19.60720323 0 34.68966726-15.08246403 34.68966729-34.68966727V134.93839925c0-16.59071043-13.57421762-30.16492806-30.16492808-30.16492805H617.57724821c-30.16492806 0-60.32985613 27.14843525-60.32985612 60.32985611v452.4739209c0 16.59071043 13.57421762 30.16492806 30.16492805 30.16492806z" fill="currentColor"></path>
</svg>