<svg class="icon icon-tags" viewBox="0 0 1098 1024" version="1.1" xmlns="http://www.w3.org/2000/svg">
  <path d="M283.42180005 272q0-28.38857157-20.09142843-48.48000001t-48.47999998-20.09142842-48.48000002 20.09142842-20.09142846 48.48000001 20.09142846 48.48 48.48000002 20.09142843 48.47999998-20.09142843 20.09142843-48.48zM855.0332285 580.57142843q0 28.38857157-19.81714313 48.2057147l-263.03999997 263.58857157q-20.9142853 19.81714313-48.75428534 19.81714312-28.38857157 0-48.20571468-19.81714312l-383.04-383.58857157q-20.36571468-19.81714313-34.55999999-54.10285688t-14.19428534-62.6742853l0-222.85714313q0-27.84000002 20.36571469-48.20571469t48.2057147-20.36571466l222.85714313 0q28.38857157 0 62.6742853 14.19428529t54.65142842 34.55999999l383.04000001 382.49142843q19.81714313 20.9142853 19.81714314 48.75428532zM1060.74751475 580.57142843q0 28.38857157-19.81714313 48.2057147l-263.04 263.58857157q-20.9142853 19.81714313-48.75428531 19.81714312-19.26857155 0-31.61142843-7.47428531t-28.38857159-24.13714314l251.79428534-251.7942853q19.81714313-19.81714313 19.81714308-48.20571469 0-27.84000002-19.81714308-48.75428531l-383.04000001-382.49142845q-20.36571468-20.36571468-54.65142842-34.55999999t-62.67428532-14.19428534l120 0q28.38857157 0 62.67428532 14.19428534t54.65142842 34.55999999l383.03999998 382.49142845q19.81714313 20.9142853 19.81714314 48.75428531z" fill="currentColor"></path>
</svg>