<svg class="icon icon-categories" viewBox="0 0 1024 1024" version="1.1" xmlns="http://www.w3.org/2000/svg">
  <path d="M900.3614811 257.09082106h-339.81629553l-67.96326003-101.9448889c-19.41807444-29.12711113-48.54518557-43.69066667-82.52681443-43.69066667H123.6385189c-53.39970333 0-97.09036999 43.69066667-97.09037113 97.09036999v582.54222222c0 53.39970333 43.69066667 97.09036999 97.09037113 97.09037002h776.7229622c53.39970333 0 97.09036999-43.69066667 97.09037113-97.09037002V354.18119104c0-53.39970333-43.69066667-97.09036999-97.09037113-97.09036998z m-97.09036999 242.72592554H220.72888889c-24.27259221 0-48.54518557-24.27259221-48.54518556-48.54518556s24.27259221-48.54518557 48.54518556-48.54518444h582.54222222c24.27259221 0 48.54518557 24.27259221 48.54518556 48.54518444s-24.27259221 48.54518557-48.54518556 48.54518556z" fill="currentColor"></path>
</svg>