<svg class="icon icon-toc" viewBox="0 0 1024 1024" version="1.1" xmlns="http://www.w3.org/2000/svg">
  <path d="M134.50666666 767.46666668H460.8c27.73333333 0 50.24000001 22.50666668 50.24000001 50.23999999v50.13333333c0 27.73333333-22.50666668 50.24000001-50.24000001 50.24000001H134.50666666c-27.73333333 0-50.24000001-22.50666668-50.23999999-50.24000001v-50.13333333c0.10666668-27.73333333 22.50666668-50.24000001 50.24000001-50.24000001zM84.37333332 541.65333333h326.18666669c27.73333333 0 50.24000001 22.39999999 50.23999999 50.13333334v50.24000001c0 27.73333333-22.50666668 50.24000001-50.24000002 50.23999999H84.37333332c-27.73333333 0-50.24000001-22.50666668-50.23999999-50.23999999v-50.24000001c0-27.73333333 22.50666668-50.13333334 50.24000001-50.13333334zM134.50666666 315.83999999H460.8c27.73333333 0 50.24000001 22.50666668 50.24000001 50.24000001v50.24000001c0 27.73333333-22.50666668 50.13333334-50.24000001 50.13333333H134.50666666c-27.73333333 0-50.24000001-22.39999999-50.23999999-50.13333333v-50.24000001c0.10666668-27.84000001 22.50666668-50.24000001 50.24000001-50.23999999zM209.81333332 89.91999999h326.18666671c27.73333333 0 50.24000001 22.39999999 50.23999997 50.13333335v50.23999999c0 27.73333333-22.50666668 50.24000001-50.24000001 50.24000001H209.81333332c-27.73333333 0-50.24000001-22.50666668-50.23999999-50.24000001v-50.24000001c0-27.73333333 22.50666668-50.13333334 50.24000001-50.13333333zM692.05333333 623.36l274.66666669 176.00000002c23.36000001 14.93333333 30.08 45.97333334 15.14666666 69.33333332L954.77333334 910.93333333c-14.93333333 23.25333334-45.97333334 30.08-69.33333335 15.14666667l-274.66666666-176c-23.36000001-14.93333333-30.08-45.97333334-15.14666667-69.33333333l27.09333334-42.24000001c14.93333333-23.36000001 46.08000001-30.08 69.33333333-15.14666666z" fill="currentColor"></path>
</svg>