<svg class="icon icon-notice" viewBox="0 0 1024 1024" version="1.1" xmlns="http://www.w3.org/2000/svg">
  <path d="M512 945.02305225v28.15620663a24.27259221 24.27259221 0 0 1-24.27259221 24.27259335H394.0352a48.54518557 48.54518557 0 0 1-41.74885888-23.78714112l-110.68302222-184.47170332a132.04290333 132.04290333 0 0 1-17.47626667-48.54518557h118.4502511a200.97706667 200.97706667 0 0 1 76.21594113 14.56355556l20.38897777 133.49925888a48.54518557 48.54518557 0 0 0 36.40888888 27.67075555l16.01991111 2.91271112a24.27259221 24.27259221 0 0 1 20.38897778 25.72894889zM997.45185223 463.45481443a194.18074112 194.18074112 0 0 1-38.8361489 116.50844445 24.75804445 24.75804445 0 0 1-36.4088889 0l-34.95253333-34.95253333a24.27259221 24.27259221 0 0 1-2.91271111-30.58346667 97.09036999 97.09036999 0 0 0 0-106.79940665 24.27259221 24.27259221 0 0 1 2.91271111-30.58346666l34.95253333-34.95253334a24.75804445 24.75804445 0 0 1 18.93262223-7.28177777 26.2144 26.2144 0 0 1 17.47626667 9.70903665A194.18074112 194.18074112 0 0 1 997.45185223 463.45481443z m-194.18074112-388.36148111v776.72296335a48.54518557 48.54518557 0 0 1-48.54518556 48.54518443h-28.64165888a48.54518557 48.54518557 0 0 1-33.98163001-14.07810332l-145.63555556-143.20829668A291.27111111 291.27111111 0 0 0 342.57730333 657.63555556H172.18370333a145.63555556 145.63555556 0 0 1-145.63555556-145.63555556v-97.09036999a145.63555556 145.63555556 0 0 1 145.63555556-145.63555556h170.3936a291.27111111 291.27111111 0 0 0 206.31703779-85.43952668l145.63555555-143.20829554a48.54518557 48.54518557 0 0 1 33.98162888-14.07810446H754.72592555a48.54518557 48.54518557 0 0 1 48.54518556 48.54518555z" fill="currentColor"></path>
</svg>