<svg class="icon icon-ins" viewBox="0 0 1024 1024" version="1.1" xmlns="http://www.w3.org/2000/svg">
  <path d="M512 0C372.906667 0 355.541333 0.64 300.928 3.072 246.4 5.632 209.28 14.208 176.64 26.88c-33.664 13.056-62.250667 30.592-90.709333 59.050667S39.893333 142.933333 26.88 176.64C14.208 209.28 5.589333 246.4 3.072 300.928 0.512 355.541333 0 372.906667 0 512s0.64 156.458667 3.072 211.072c2.56 54.485333 11.136 91.648 23.808 124.288a251.093333 251.093333 0 0 0 59.050667 90.709333A250.368 250.368 0 0 0 176.64 997.12c32.682667 12.629333 69.802667 21.290667 124.288 23.808C355.541333 1023.488 372.906667 1024 512 1024s156.458667-0.64 211.072-3.072c54.485333-2.56 91.648-11.178667 124.288-23.808a251.648 251.648 0 0 0 90.709333-59.050667 250.026667 250.026667 0 0 0 59.050667-90.709333c12.629333-32.64 21.290667-69.802667 23.808-124.288 2.56-54.613333 3.072-71.978667 3.072-211.072s-0.64-156.458667-3.072-211.072c-2.56-54.485333-11.178667-91.690667-23.808-124.288a251.306667 251.306667 0 0 0-59.050667-90.709333A249.472 249.472 0 0 0 847.36 26.88c-32.64-12.672-69.802667-21.290667-124.288-23.808C668.458667 0.512 651.093333 0 512 0z m0 92.16c136.661333 0 152.96 0.682667 206.933333 3.029333 49.92 2.346667 77.013333 10.624 95.018667 17.706667 23.978667 9.258667 40.96 20.352 58.965333 38.229333 17.877333 17.92 28.970667 34.944 38.229334 58.922667 6.997333 18.005333 15.36 45.098667 17.621333 95.018667 2.432 54.016 2.986667 70.229333 2.986667 206.933333s-0.64 152.96-3.157334 206.933333c-2.602667 49.92-10.922667 77.013333-17.962666 95.018667a162.56 162.56 0 0 1-38.357334 58.965333 159.744 159.744 0 0 1-58.88 38.229334c-17.92 6.997333-45.44 15.36-95.36 17.621333-54.357333 2.432-70.357333 2.986667-207.317333 2.986667-137.002667 0-153.002667-0.64-207.317333-3.157334-49.962667-2.602667-77.482667-10.922667-95.402667-17.962666a158.549333 158.549333 0 0 1-58.837333-38.357334 155.477333 155.477333 0 0 1-38.4-58.88c-7.04-17.92-15.317333-45.44-17.92-95.36-1.92-53.76-2.602667-70.357333-2.602667-206.677333 0-136.362667 0.682667-153.002667 2.602667-207.402667 2.602667-49.92 10.88-77.397333 17.92-95.317333 8.96-24.32 20.437333-40.96 38.4-58.922667 17.877333-17.877333 34.56-29.397333 58.837333-38.314666 17.92-7.082667 44.842667-15.402667 94.762667-17.962667 54.4-1.92 70.4-2.56 207.317333-2.56l1.92 1.28z m0 156.928a262.912 262.912 0 1 0 0 525.824 262.912 262.912 0 1 0 0-525.824zM512 682.666667c-94.293333 0-170.666667-76.373333-170.666667-170.666667s76.373333-170.666667 170.666667-170.666667 170.666667 76.373333 170.666667 170.666667-76.373333 170.666667-170.666667 170.666667z m334.762667-443.946667a61.482667 61.482667 0 0 1-122.88 0 61.44 61.44 0 0 1 122.88 0z"></path>
</svg>
