<svg class="icon icon-weibo" viewBox="0 0 1025 1024" version="1.1" xmlns="http://www.w3.org/2000/svg">
  <path d="M385.682429 733.696q11.995429-19.456 6.290286-39.424t-25.746286-28.598857q-19.456-7.972571-41.691429-0.585143t-34.304 26.258286q-12.580571 19.456-7.460571 39.131429t24.576 28.891429 42.569143 1.462857 35.693714-27.136zM439.442429 664.576q4.534857-7.460571 1.974857-15.140571t-10.020571-10.605714q-7.972571-2.852571-16.310857 0.292571t-12.288 10.605714q-9.728 17.700571 7.460571 25.746286 7.972571 2.852571 16.603429-0.292571t12.580571-10.605714zM538.843572 725.723429q-25.746286 58.294857-90.258286 85.723429t-128 6.875429q-61.147429-19.456-84.260571-72.265143t3.730286-107.154286q26.843429-53.174857 86.601143-79.433143t120.32-10.825143q63.414857 16.603429 90.550857 68.315429t1.462857 108.836571zM717.165858 634.294857q-5.12-54.857143-50.834286-97.133714t-119.149714-62.317714-156.891429-11.995429q-127.414857 13.165714-211.163429 80.822857t-75.702857 151.113143q5.12 54.857143 50.834286 97.133714t119.149714 62.317714 156.891429 11.995429q127.414857-13.165714 211.163429-80.822857t75.702857-151.113143zM893.147572 636.562286q0 38.838857-21.138286 79.725714t-62.317714 78.262857-96.256 67.145143-129.170286 47.396571-154.550857 17.700571-157.110857-19.163429-137.435429-53.174857-98.011429-86.308571-37.156571-114.029714q0-65.682286 39.716571-139.995429t112.859429-147.456q96.548571-96.548571 195.145143-134.875429t140.873143 4.022857q37.156571 36.571429 11.410286 119.442286-2.267429 7.972571-0.585143 11.410286t5.705143 4.022857 8.265143-0.292571 7.68-1.974857l3.437714-1.170286q79.433143-33.718857 140.580571-33.718857t87.405714 34.889143q25.746286 35.986286 0 101.741714-1.170286 7.460571-2.56 11.410286t2.56 7.168 6.875429 4.315429 9.728 3.437714q32.548571 10.313143 58.88 26.843429t45.714286 46.592 19.456 66.56zM850.871001 279.990857q23.990857 26.843429 31.158857 62.025143t-3.730286 67.145143q-4.534857 13.165714-16.822857 19.456t-25.453714 2.267429q-13.165714-4.534857-19.456-16.822857t-2.267429-25.453714q11.410286-35.986286-13.677714-63.414857t-61.147429-19.968q-13.677714 2.852571-25.746286-4.534857t-14.262857-21.138286q-2.852571-13.677714 4.534857-25.453714t21.138286-14.555429q34.304-7.460571 68.022857 3.145143t57.709714 37.449143zM954.295001 186.88q49.737143 54.857143 64.292571 127.122286t-7.68 138.020571q-5.12 15.433143-19.456 22.820571t-29.696 2.267429-22.820571-19.456-2.852571-29.696q16.018286-46.884571 5.705143-98.304t-45.714286-90.258286q-35.401143-39.424-84.553143-54.564571t-98.889143-4.827429q-16.018286 3.437714-29.696-5.412571t-17.115429-24.868571 5.412571-29.403429 24.868571-16.822857q70.290286-14.848 139.410286 6.582857t118.857143 76.873143z"></path>
</svg>