<svg class="icon icon-twitter" viewBox="0 0 1024 1024" version="1.1" xmlns="http://www.w3.org/2000/svg">
  <path d="M962.285714 233.142857q-38.285714 56-92.571429 95.428571 0.571429 8 0.571429 24 0 74.285714-21.714286 148.285714t-66 142-105.428571 120.285714-147.428571 83.428571-184.571429 31.142857q-154.857143 0-283.428571-82.857143 20 2.285714 44.571429 2.285714 128.571429 0 229.142857-78.857143-60-1.142857-107.428571-36.857143t-65.142857-91.142857q18.857143 2.857143 34.857143 2.857143 24.571429 0 48.571429-6.285714-64-13.142857-106-63.714286t-42-117.428571l0-2.285714q38.857143 21.714286 83.428571 23.428571-37.714286-25.142857-60-65.714286t-22.285714-88q0-50.285714 25.142857-93.142857 69.142857 85.142857 168.285714 136.285714t212.285714 56.857143q-4.571429-21.714286-4.571429-42.285714 0-76.571429 54-130.571429t130.571429-54q80 0 134.857143 58.285714 62.285714-12 117.142857-44.571429-21.142857 65.714286-81.142857 101.714286 53.142857-5.714286 106.285714-28.571429z"></path>
</svg>